<svg xmlns="http://www.w3.org/2000/svg" viewBox="0 0 100 100" width="100" height="100">
  <defs>
    <radialGradient id="moonGradient" cx="0.3" cy="0.3" r="0.8">
      <stop offset="0%" style="stop-color:#FFD700;stop-opacity:1" />
      <stop offset="50%" style="stop-color:#FFA500;stop-opacity:1" />
      <stop offset="100%" style="stop-color:#FF8C00;stop-opacity:0.8" />
    </radialGradient>
    <radialGradient id="spiralGradient" cx="0.7" cy="0.7" r="0.6">
      <stop offset="0%" style="stop-color:#8A2BE2;stop-opacity:0.9" />
      <stop offset="50%" style="stop-color:#4B0082;stop-opacity:0.7" />
      <stop offset="100%" style="stop-color:#2E0854;stop-opacity:0.5" />
    </radialGradient>
    <filter id="glow">
      <feGaussianBlur stdDeviation="2" result="coloredBlur"/>
      <feMerge> 
        <feMergeNode in="coloredBlur"/>
        <feMergeNode in="SourceGraphic"/>
      </feMerge>
    </filter>
  </defs>
  
  <!-- Outer circle background -->
  <circle cx="50" cy="50" r="48" fill="#1a0b2e" stroke="#FFD700" stroke-width="1" opacity="0.8"/>
  
  <!-- Moon crescent -->
  <path d="M 25 15 Q 35 10, 45 15 Q 55 20, 60 30 Q 65 40, 60 50 Q 55 60, 50 65 Q 40 70, 30 65 Q 20 60, 15 50 Q 10 40, 15 30 Q 20 20, 25 15 Z" 
        fill="url(#moonGradient)" 
        filter="url(#glow)"/>
  
  <!-- Moon surface patterns -->
  <circle cx="30" cy="25" r="2" fill="#FFA500" opacity="0.6"/>
  <circle cx="40" cy="35" r="1.5" fill="#FFD700" opacity="0.7"/>
  <circle cx="35" cy="45" r="1" fill="#FFA500" opacity="0.5"/>
  <circle cx="45" cy="50" r="1.2" fill="#FFD700" opacity="0.6"/>
  
  <!-- Decorative patterns on moon -->
  <path d="M 28 30 Q 32 28, 36 30 Q 40 32, 42 36" 
        stroke="#FFD700" 
        stroke-width="0.8" 
        fill="none" 
        opacity="0.7"/>
  <path d="M 32 40 Q 36 38, 40 40 Q 44 42, 46 46" 
        stroke="#FFA500" 
        stroke-width="0.6" 
        fill="none" 
        opacity="0.6"/>
  
  <!-- Spiral galaxy -->
  <g transform="translate(65, 35)">
    <circle cx="0" cy="0" r="12" fill="url(#spiralGradient)" opacity="0.8"/>
    <path d="M 0 0 Q -8 -4, -6 -8 Q -2 -10, 2 -8 Q 8 -4, 6 0 Q 2 4, -2 2 Q -6 0, -4 -4" 
          stroke="#9370DB" 
          stroke-width="1" 
          fill="none" 
          opacity="0.9"/>
    <circle cx="0" cy="0" r="2" fill="#DDA0DD" opacity="0.8"/>
  </g>
  
  <!-- Small stars -->
  <circle cx="20" cy="20" r="0.8" fill="#FFD700" opacity="0.8"/>
  <circle cx="75" cy="25" r="0.6" fill="#DDA0DD" opacity="0.7"/>
  <circle cx="80" cy="60" r="0.7" fill="#FFD700" opacity="0.6"/>
  <circle cx="25" cy="75" r="0.5" fill="#DDA0DD" opacity="0.8"/>
  
  <!-- Mystical sparkles -->
  <g opacity="0.7">
    <path d="M 15 35 L 16 36 L 15 37 L 14 36 Z" fill="#FFD700"/>
    <path d="M 70 20 L 71 21 L 70 22 L 69 21 Z" fill="#DDA0DD"/>
    <path d="M 85 45 L 86 46 L 85 47 L 84 46 Z" fill="#FFD700"/>
    <path d="M 30 80 L 31 81 L 30 82 L 29 81 Z" fill="#DDA0DD"/>
  </g>
</svg>